#!OML:ASF H:\Not Pregnant\Project 1\Capture day 1\Session 1\non-pregnant.ASF
:FULLY-SPECIFIED
:DEGREES
855
root -5.40085 16.0803 34.5386 154.697 -79.5009 -146.178
lowerback -9.86617 2.46515 1.83066
upperback -3.66067 2.96597 0.168813
thorax 1.80681 1.41494 -0.520411
lowerneck 26.5658 -9.74793 -24.8473
upperneck 0.752314 -29.4572 48.7879
head 10.2004 -20.3928 25.8433
rclavicle -4.22417e-015 8.74653e-015
rhumerus -33.0054 10.677 -95.0413
rradius 24.9893
rwrist 24.6862
rhand -7.40063 3.96394
rfingers 7.12502
rthumb 18.4855 -25.1777
lclavicle -4.22417e-015 8.74653e-015
lhumerus -41.3468 -13.0686 94.0014
lradius 32.4009
lwrist 39.1145
lhand -14.7254 -14.2402
lfingers 7.12502
lthumb 11.4296 15.4283
rfemur -10.4726 1.16879 25.4371
rtibia 16.7922
rfoot -15.9043 4.80312
rtoes -17.2178
lfemur -15.5802 -3.06768 -11.3638
ltibia 24.1543
lfoot -16.3903 2.73172
ltoes -27.0909
856
root -5.41032 16.0866 34.5596 155.567 -79.5488 -147.024
lowerback -9.93893 2.45365 1.70101
upperback -3.66024 2.96226 0.113535
thorax 1.84354 1.41349 -0.502347
lowerneck 26.5434 -9.74299 -24.9353
upperneck 0.915483 -29.4711 48.6506
head 10.2294 -20.3649 25.7335
rclavicle -2.16178e-014 -1.74931e-014
rhumerus -33.0133 10.7519 -95.1049
rradius 25.0193
rwrist 24.6702
rhand -7.44975 3.94643
rfingers 7.12502
rthumb 18.4382 -25.1997
lclavicle -2.16178e-014 -1.74931e-014
lhumerus -41.3571 -13.0899 93.9925
lradius 32.4326
lwrist 39.0916
lhand -14.6862 -14.2272
lfingers 7.12502
lthumb 11.4674 15.4392
rfemur -10.4287 1.26216 25.1776
rtibia 16.6767
rfoot -15.8523 4.71286
rtoes -17.3651
lfemur -15.4183 -3.10791 -11.6274
ltibia 23.8288
lfoot -16.2691 2.73862
ltoes -26.9894
857
root -5.4194 16.0923 34.5803 156.351 -79.5875 -147.789
lowerback -10.0039 2.44493 1.58696
upperback -3.65866 2.96115 0.0614492
thorax 1.87787 1.41325 -0.489706
lowerneck 26.5226 -9.74039 -25.014
upperneck 1.06773 -29.4789 48.5167
head 10.2488 -20.3336 25.6241
rclavicle 3.79679e-014 1.51076e-014
rhumerus -33.0268 10.8704 -95.1857
rradius 25.0643
rwrist 24.5828
rhand -7.51651 3.89442
rfingers 7.12502
rthumb 18.374 -25.2578
lclavicle 3.79679e-014 1.51076e-014
lhumerus -41.3611 -13.1209 93.983
lradius 32.4486
lwrist 39.0407
lhand -14.6581 -14.225
lfingers 7.12502
lthumb 11.4945 15.4399
rfemur -10.3811 1.37169 24.9382
rtibia 16.5649
rfoot -15.7968 4.60624
rtoes -17.5111
lfemur -15.2619 -3.13534 -11.8699
ltibia 23.5208
lfoot -16.1556 2.7344
ltoes -26.9396
858
root -5.42828 16.0975 34.6009 157.078 -79.6225 -148.501
lowerback -10.064 2.43629 1.4831
upperback -3.65604 2.95944 0.0114253
thorax 1.91095 1.41267 -0.480888
lowerneck 26.4974 -9.73954 -25.079
upperneck 1.21668 -29.4748 48.3799
head 10.2539 -20.2923 25.5075
rclavicle -2.04748e-014 1.82882e-014
rhumerus -33.0292 10.9478 -95.2485
rradius 25.0989
rwrist 24.5125
rhand -7.58696 3.85552
rfingers 7.12502
rthumb 18.3062 -25.3031
lclavicle -2.04748e-014 1.82882e-014
lhumerus -41.3562 -13.1514 93.9658
lradius 32.4522
lwrist 38.9942
lhand -14.6168 -14.2263
lfingers 7.12502
lthumb 11.5343 15.4364
rfemur -10.3329 1.47069 24.7109
rtibia 16.4598
rfoot -15.7466 4.50686
rtoes -17.6617
lfemur -15.1129 -3.15006 -12.1006
ltibia 23.232
lfoot -16.0478 2.71962
ltoes -26.9636
859
root -5.43673 16.102 34.6213 157.711 -79.6481 -149.119
lowerback -10.1178 2.43637 1.40937
upperback -3.65369 2.96688 -0.0444194
thorax 1.94229 1.41647 -0.494104
lowerneck 26.4685 -9.74253 -25.1179
upperneck 1.35687 -29.4591 48.2478
head 10.2435 -20.2429 25.3874
rclavicle -4.19933e-014 -7.95139e-015
rhumerus -33.0278 11.0084 -95.3131
rradius 25.1393
rwrist 24.4134
rhand -7.65251 3.8257
rfingers 7.12502
rthumb 18.2432 -25.3388
lclavicle -4.19933e-014 -7.95139e-015
lhumerus -41.3382 -13.1878 93.9267
lradius 32.4534
lwrist 39.0206
lhand -14.5255 -14.2215
lfingers 7.12502
lthumb 11.6224 15.4362
rfemur -10.2852 1.57069 24.5059
rtibia 16.3566
rfoot -15.6949 4.40717
rtoes -17.8101
lfemur -14.9783 -3.15064 -12.3092
ltibia 22.9692
lfoot -15.947 2.70066
ltoes -27.0637
860
root -5.44483 16.1061 34.6418 158.305 -79.6731 -149.698
lowerback -10.1672 2.43993 1.35185
upperback -3.65228 2.97764 -0.103286
thorax 1.97127 1.42181 -0.519312
lowerneck 26.4275 -9.74613 -25.1521
upperneck 1.49826 -29.4374 48.1143
head 10.2306 -20.1882 25.2648
rclavicle -1.41634e-014 2.38542e-015
rhumerus -33.0232 11.0617 -95.3704
rradius 25.1824
rwrist 24.2891
rhand -7.69908 3.81988
rfingers 7.12502
rthumb 18.1984 -25.3488
lclavicle -1.41634e-014 2.38542e-015
lhumerus -41.3061 -13.205 93.867
lradius 32.4488
lwrist 39.0592
lhand -14.3912 -14.1821
lfingers 7.12502
lthumb 11.7519 15.4683
rfemur -10.2444 1.66575 24.3082
rtibia 16.2646
rfoot -15.6459 4.30739
rtoes -17.9537
lfemur -14.8563 -3.13862 -12.5108
ltibia 22.7251
lfoot -15.8512 2.67504
ltoes -27.2091
861
root -5.45251 16.1097 34.6622 158.843 -79.6902 -150.22
lowerback -10.2112 2.4473 1.30501
upperback -3.65219 2.9924 -0.156905
thorax 1.99625 1.42907 -0.544853
lowerneck 26.3805 -9.75284 -25.1949
upperneck 1.63258 -29.4206 47.9825
head 10.223 -20.1364 25.1438
rclavicle 2.60905e-014 -3.18055e-015
rhumerus -33.0232 11.1402 -95.4275
rradius 25.2368
rwrist 24.114
rhand -7.73493 3.81216
rfingers 7.12502
rthumb 18.1639 -25.3597
lclavicle 2.60905e-014 -3.18055e-015
lhumerus -41.2617 -13.1979 93.7958
lradius 32.4365
lwrist 39.1325
lhand -14.2148 -14.1433
lfingers 7.12502
lthumb 11.922 15.4973
rfemur -10.2108 1.77622 24.1248
rtibia 16.1834
rfoot -15.5949 4.19136
rtoes -18.1076
lfemur -14.7458 -3.11131 -12.6983
ltibia 22.498
lfoot -15.7626 2.63756
ltoes -27.3461
862
root -5.45995 16.1131 34.683 159.471 -79.7176 -150.834
lowerback -10.2524 2.45118 1.24091
upperback -3.6532 3.00434 -0.211867
thorax 2.01774 1.43495 -0.562602
lowerneck 26.3287 -9.76183 -25.2571
upperneck 1.76219 -29.4142 47.8503
head 10.2269 -20.0911 25.0252
rclavicle -5.56597e-015 -2.62396e-014
rhumerus -33.0233 11.2127 -95.4747
rradius 25.2906
rwrist 23.9406
rhand -7.76857 3.80028
rfingers 7.12502
rthumb 18.1315 -25.3746
lclavicle -5.56597e-015 -2.62396e-014
lhumerus -41.2128 -13.1738 93.7241
lradius 32.4239
lwrist 39.2492
lhand -14.0219 -14.099
lfingers 7.12502
lthumb 12.108 15.5306
rfemur -10.1892 1.88743 23.9183
rtibia 16.1221
rfoot -15.5486 4.06708
rtoes -18.2564
lfemur -14.6412 -3.08105 -12.9091
ltibia 22.2764
lfoot -15.6784 2.58923
ltoes -27.4239
863
root -5.46715 16.1162 34.7034 160.065 -79.7471 -151.419
lowerback -10.281 2.45526 1.17357
upperback -3.65679 3.01702 -0.262696
thorax 2.02923 1.44117 -0.574776
lowerneck 26.2777 -9.76574 -25.3311
upperneck 1.88884 -29.4084 47.7238
head 10.2377 -20.0503 24.9204
rclavicle -1.16289e-014 -8.74653e-015
rhumerus -33.0109 11.1874 -95.4823
rradius 25.32
rwrist 23.8606
rhand -7.81087 3.7887
rfingers 7.12502
rthumb 18.0908 -25.39
lclavicle -1.16289e-014 -8.74653e-015
lhumerus -41.167 -13.149 93.6614
lradius 32.4016
lwrist 39.3304
lhand -13.8518 -14.0509
lfingers 7.12502
lthumb 12.272 15.5691
rfemur -10.1677 2.01251 23.7178
rtibia 16.0764
rfoot -15.5036 3.91995
rtoes -18.4254
lfemur -14.5355 -3.03878 -13.1145
ltibia 22.0608
lfoot -15.6052 2.51513
ltoes -27.4132
864
root -5.47425 16.1191 34.7243 160.779 -79.7821 -152.131
lowerback -10.309 2.44915 1.07171
upperback -3.65756 3.01946 -0.305406
thorax 2.04094 1.44249 -0.560459
lowerneck 26.2208 -9.76936 -25.4177
upperneck 2.01325 -29.3975 47.5885
head 10.2444 -20.0035 24.8101
rclavicle -6.41081e-015 -3.97569e-015
rhumerus -33.0082 11.207 -95.4931
rradius 25.3566
rwrist 23.7745
rhand -7.87903 3.75616
rfingers 7.12502
rthumb 18.0252 -25.4286
lclavicle -6.41081e-015 -3.97569e-015
lhumerus -41.1212 -13.1178 93.6189
lradius 32.3751
lwrist 39.4064
lhand -13.7162 -14.0018
lfingers 7.12502
lthumb 12.4027 15.6103
rfemur -10.1499 2.1402 23.4904
rtibia 16.0436
rfoot -15.4622 3.7703
rtoes -18.5978
lfemur -14.4275 -3.00244 -13.3464
ltibia 21.849
lfoot -15.5388 2.43144
ltoes -27.2666
865
root -5.48092 16.1219 34.745 161.436 -79.8104 -152.791
lowerback -10.3295 2.43397 0.970585
upperback -3.65641 3.00961 -0.3321
thorax 2.04944 1.43777 -0.531773
lowerneck 26.1507 -9.76429 -25.517
upperneck 2.14974 -29.3689 47.4388
head 10.2445 -19.9432 24.6966
rclavicle 2.43511e-015 5.56597e-015
rhumerus -33.0028 11.2247 -95.4941
rradius 25.3811
rwrist 23.7385
rhand -7.97211 3.70471
rfingers 7.12502
rthumb 17.9357 -25.4883
lclavicle 2.43511e-015 5.56597e-015
lhumerus -41.0795 -13.0748 93.6005
lradius 32.3216
lwrist 39.3062
lhand -13.6836 -13.9697
lfingers 7.12502
lthumb 12.4341 15.6404
rfemur -10.1263 2.26743 23.277
rtibia 16.0101
rfoot -15.4183 3.62308
rtoes -18.7792
lfemur -14.3204 -2.96084 -13.5645
ltibia 21.6501
lfoot -15.4801 2.33086
ltoes -27.0457
866
root -5.48735 16.1245 34.7652 161.994 -79.8311 -153.362
lowerback -10.3436 2.41805 0.879831
upperback -3.65095 2.99789 -0.351777
thorax 2.05901 1.43222 -0.502029
lowerneck 26.0727 -9.76002 -25.6021
upperneck 2.2861 -29.3241 47.2815
head 10.2281 -19.8694 24.5732
rclavicle 3.37934e-015 3.18055e-015
rhumerus -32.9829 11.1867 -95.4783
rradius 25.3836
rwrist 23.7743
rhand -8.07316 3.66753
rfingers 7.12502
rthumb 17.8384 -25.5343
lclavicle 3.37934e-015 3.18055e-015
lhumerus -41.0346 -13.0406 93.5918
lradius 32.2491
lwrist 39.1118
lhand -13.7067 -13.9441
lfingers 7.12502
lthumb 12.4119 15.6674
rfemur -10.0936 2.39845 23.0851
rtibia 15.9777
rfoot -15.3708 3.47508
rtoes -18.9551
lfemur -14.2098 -2.90995 -13.7612
ltibia 21.4624
lfoot -15.4266 2.21704
ltoes -26.8191
867
root -5.49344 16.1269 34.7848 162.428 -79.8409 -153.817
lowerback -10.3488 2.40635 0.805465
upperback -3.64104 2.99042 -0.366061
thorax 2.069 1.42889 -0.475617
lowerneck 25.9945 -9.76374 -25.6707
upperneck 2.40955 -29.2763 47.1248
head 10.1998 -19.7914 24.4412
rclavicle 4.22417e-015 3.18055e-015
rhumerus -32.9501 11.1056 -95.4478
rradius 25.3721
rwrist 23.852
rhand -8.16917 3.64738
rfingers 7.12502
rthumb 17.7461 -25.5629
lclavicle 4.22417e-015 3.18055e-015
lhumerus -40.9818 -13.0153 93.5838
lradius 32.1763
lwrist 38.9756
lhand -13.73 -13.9221
lfingers 7.12502
lthumb 12.3895 15.6908
rfemur -10.0472 2.53595 22.9206
rtibia 15.9393
rfoot -15.3178 3.3272
rtoes -19.1303
lfemur -14.0978 -2.84283 -13.9315
ltibia 21.2918
lfoot -15.3814 2.09037
ltoes -26.6154
